<svg width="24" height="24" viewBox="0 0 24 24" fill="none" xmlns="http://www.w3.org/2000/svg">
<path d="M17.4632 8.13932L11.9779 11.1045L6.49257 8.13932C5.99391 7.8428 5.39551 8.04048 5.09632 8.53467C4.89685 9.02887 4.99658 9.6219 5.49525 9.91842L10.9805 12.8836V19.0116C10.9805 19.6046 11.3795 20 11.9779 20C12.5763 20 12.9752 19.6046 12.9752 19.0116V12.8836L18.4605 9.91842C18.9592 9.6219 19.1586 9.02887 18.8594 8.53467C18.5602 8.04048 17.9618 7.8428 17.4632 8.13932Z" fill="black"/>
<path d="M19.9 5.02043L13.9 1.5244C12.7 0.825199 11.2 0.825199 10 1.5244L4.1 5.02043C2.8 5.71964 2 7.21793 2 8.71623V15.3087C2 16.807 2.8 18.3053 4.1 19.0045L10.1 22.5006C10.7 22.8002 11.3 23 12 23C12.7 23 13.3 22.8002 13.9 22.5006L19.9 19.0045C21.2 18.3053 22 16.807 22 15.3087V8.71623C22 7.21793 21.2 5.71964 19.9 5.02043ZM20 15.3087C20 16.1078 19.6 16.9069 18.9 17.3065L12.9 20.8025C12.3 21.1022 11.6 21.1022 11 20.8025L5 17.3065C4.3 16.9069 3.9 16.2077 3.9 15.3087V8.71623C3.9 7.91714 4.3 7.11805 5 6.7185L11 3.22247C11.4 3.12259 11.7 3.0227 12 3.0227C12.3 3.0227 12.6 3.12259 12.9 3.32236L18.9 6.81839C19.6 7.21793 20 7.91714 20 8.81612V15.3087Z" fill="black"/>
</svg>
