<svg width="24" height="24" viewBox="0 0 24 24" fill="none" xmlns="http://www.w3.org/2000/svg">
<path fill-rule="evenodd" clip-rule="evenodd" d="M12 4C7.58172 4 4 7.58172 4 12C4 16.4183 7.58172 20 12 20C16.4183 20 20 16.4183 20 12C20 7.58172 16.4183 4 12 4ZM2 12C2 6.47715 6.47715 2 12 2C17.5228 2 22 6.47715 22 12C22 17.5228 17.5228 22 12 22C6.47715 22 2 17.5228 2 12ZM12 7.8C10.8523 7.8 10 8.65229 10 9.8C10 10.3523 9.55228 10.8 9 10.8C8.44772 10.8 8 10.3523 8 9.8C8 7.54772 9.74771 5.8 12 5.8C14.2523 5.8 16 7.54772 16 9.8C16 11.7055 14.7491 13.2498 13 13.6802V13.7C13 14.2523 12.5523 14.7 12 14.7C11.4477 14.7 11 14.2523 11 13.7V12.8C11 12.2477 11.4477 11.8 12 11.8C13.1477 11.8 14 10.9477 14 9.8C14 8.65229 13.1477 7.8 12 7.8ZM12 15.3C12.5523 15.3 13 15.7477 13 16.3V17.2C13 17.7523 12.5523 18.2 12 18.2C11.4477 18.2 11 17.7523 11 17.2V16.3C11 15.7477 11.4477 15.3 12 15.3Z" fill="black"/>
</svg>
