<svg width="24" height="25" viewBox="0 0 24 25" fill="none" xmlns="http://www.w3.org/2000/svg">
<path d="M19.8503 7.40516C19.339 4.34905 16.7825 1.78586 13.6124 1.19436C11.2604 0.701436 8.80621 1.29294 6.96553 2.7717C5.0226 4.25046 4 6.41932 4 8.68675C4 10.757 4.81808 12.6301 6.35197 14.1089C7.06779 14.799 7.47683 15.5876 7.68135 16.4749L7.88587 17.7565C8.19265 19.0381 9.3175 20.0239 10.7491 20.0239H13.2034C14.5327 20.0239 15.7599 19.0381 16.0666 17.7565L16.3734 16.4749C16.5779 15.5876 16.987 14.799 17.7028 14.1089C19.5435 12.3344 20.3616 9.86976 19.8503 7.40516ZM16.2712 12.7287C15.2486 13.7145 14.635 14.8976 14.3282 16.0806L14.0215 17.3622C14.0215 17.7565 13.6124 18.0522 13.2034 18.0522H10.7491C10.3401 18.0522 10.0333 17.7565 9.93106 17.3622L9.62428 16.0806C9.41976 14.799 8.70395 13.7145 7.68135 12.7287C6.65875 11.6443 6.04519 10.2641 6.04519 8.68675C6.04519 7.01082 6.86327 5.33489 8.19265 4.25046C9.3175 3.46179 10.6469 2.96887 11.9763 2.96887C12.3853 2.96887 12.7943 2.96887 13.2034 3.06745C15.5553 3.56038 17.396 5.43347 17.8051 7.70091C18.2141 9.57401 17.6005 11.4471 16.2712 12.7287Z" fill="black"/>
<path d="M14.8267 21.0239H9.06667C8.42667 21.0239 8 21.4239 8 22.0239C8 22.6239 8.42667 23.0239 9.06667 23.0239H14.9333C15.5733 23.0239 16 22.6239 16 22.0239C16 21.4239 15.4667 21.0239 14.8267 21.0239Z" fill="black"/>
</svg>
