<svg width="24" height="24" viewBox="0 0 24 24" fill="none" xmlns="http://www.w3.org/2000/svg">
<path d="M22.4481 6.93611C22.3469 6.63301 22.0434 6.32992 21.7399 6.32992C21.4364 6.22889 21.0317 6.32992 20.8294 6.63301L17.5919 9.866C17.1872 10.2701 16.5802 10.4722 15.9732 10.5732C15.3662 10.5732 14.8603 10.3712 14.3545 9.96703C13.9498 9.56291 13.6463 8.95672 13.6463 8.35054C13.6463 7.64332 13.9498 6.93611 14.4556 6.43095L17.4907 3.40003C17.6931 3.19797 17.7943 2.79384 17.7943 2.49075C17.7943 2.18766 17.3896 1.68251 17.0861 1.58147C13.2416 0.167044 8.99245 1.37941 6.46319 4.71343C4.84447 6.83507 4.33862 9.56291 4.94564 12.1897L1.80936 15.3217C1.30351 15.8268 1 16.6351 1 17.3423C1 18.0495 1.30351 18.8577 1.80936 19.3629L4.43979 22.1918C4.94564 22.6969 5.755 23 6.46319 23C7.17138 23 7.98075 22.6969 8.4866 22.1918L11.6229 19.0598C14.658 19.767 17.8954 18.8577 20.2223 16.6351C22.8528 14.1093 23.6621 10.2701 22.4481 6.93611ZM18.9071 15.2206C17.0861 17.0392 14.3545 17.7464 11.8252 17.0392C11.4205 16.9382 11.117 17.0392 10.8135 17.3423L7.27256 20.8784C6.96904 21.1814 6.36202 21.1814 5.95734 20.8784L3.22575 18.1505C3.0234 17.8474 2.92223 17.6454 2.92223 17.4433C2.92223 17.2412 3.0234 16.9382 3.22575 16.8371L6.7667 13.301C7.07021 12.998 7.17138 12.6949 6.96904 12.2907C6.36202 10.0681 6.7667 7.64332 8.08192 5.9258C9.4983 4.00621 11.6229 2.99591 13.8486 2.99591C14.1521 2.99591 14.4556 2.99591 14.7592 3.09694L12.9381 4.91549C12.0276 5.72374 11.5217 7.03714 11.5217 8.24951C11.5217 9.46187 12.0276 10.4722 12.8369 11.2804C13.6463 11.9876 14.658 12.3918 15.7709 12.3918C15.7709 12.3918 15.7709 12.3918 15.872 12.3918C16.9849 12.3918 18.0978 11.9876 18.9071 11.0784L20.8294 9.15878C21.234 11.3815 20.4247 13.6041 18.9071 15.2206Z" fill="black"/>
</svg>
