<svg width="24" height="24" viewBox="0 0 24 24" fill="none" xmlns="http://www.w3.org/2000/svg">
<path d="M3.1 9.1002L10 12.2002C10.6 12.5002 11.3 12.6002 12 12.6002C12.7 12.6002 13.3 12.5002 14 12.2002L20.9 9.1002C21.6 8.8002 22 8.1002 22 7.3002C22 6.5002 21.6 5.9002 20.9 5.5002L14 2.4002C12.7 1.8002 11.3 1.8002 10.1 2.4002L3.1 5.6002C2.4 5.9002 2 6.6002 2 7.3002C2 8.1002 2.4 8.8002 3.1 9.1002ZM10.9 4.2002C11.6 3.9002 12.5 3.9002 13.2 4.2002L20 7.3002L13.2 10.4002C12.5 10.7002 11.6 10.7002 10.9 10.4002L4.1 7.3002L10.9 4.2002Z" fill="black"/>
<path d="M19.9999 11.9004L13.0999 15.0004C12.3999 15.3004 11.4999 15.3004 10.7999 15.0004L3.99993 11.9004C3.49993 11.7004 2.89993 11.9004 2.69993 12.4004C2.49993 12.9004 2.69993 13.5004 3.19993 13.7004L9.99993 16.9004C10.5999 17.2004 11.2999 17.3004 11.9999 17.3004C12.6999 17.3004 13.2999 17.2004 13.9999 16.9004L20.8999 13.8004C21.3999 13.6004 21.5999 13.0004 21.3999 12.5004C21.0999 11.9004 20.4999 11.7004 19.9999 11.9004Z" fill="black"/>
<path d="M19.9999 16.6001L13.0999 19.7001C12.3999 20.0001 11.4999 20.0001 10.7999 19.7001L3.99993 16.6001C3.49993 16.4001 2.89993 16.6001 2.69993 17.1001C2.49993 17.6001 2.69993 18.2001 3.19993 18.4001L9.99993 21.6001C10.5999 21.9001 11.2999 22.0001 11.9999 22.0001C12.6999 22.0001 13.2999 21.9001 13.9999 21.6001L20.8999 18.5001C21.3999 18.3001 21.5999 17.7001 21.3999 17.2001C21.0999 16.6001 20.4999 16.4001 19.9999 16.6001Z" fill="black"/>
</svg>
