<svg width="24" height="24" viewBox="0 0 24 24" fill="none" xmlns="http://www.w3.org/2000/svg">
<path fill-rule="evenodd" clip-rule="evenodd" d="M18.6961 5.30388C16.9576 3.56537 14.0424 3.56537 12.3039 5.30388L10.7071 6.90066C10.3166 7.29118 9.68342 7.29118 9.29289 6.90066C8.90237 6.51013 8.90237 5.87697 9.29289 5.48644L10.8897 3.88967C13.4092 1.37011 17.5908 1.37011 20.1103 3.88967C22.6299 6.40922 22.6299 10.5908 20.1103 13.1103L18.5136 14.7071C18.123 15.0976 17.4899 15.0976 17.0993 14.7071C16.7088 14.3166 16.7088 13.6834 17.0993 13.2929L18.6961 11.6961C20.4346 9.95761 20.4346 7.04239 18.6961 5.30388ZM15.7071 8.29289C16.0976 8.68342 16.0976 9.31658 15.7071 9.70711L9.70711 15.7071C9.31658 16.0976 8.68342 16.0976 8.29289 15.7071C7.90237 15.3166 7.90237 14.6834 8.29289 14.2929L14.2929 8.29289C14.6834 7.90237 15.3166 7.90237 15.7071 8.29289ZM6.90066 9.29289C7.29118 9.68342 7.29118 10.3166 6.90066 10.7071L5.30388 12.3039C3.56537 14.0424 3.56537 16.9576 5.30388 18.6961C7.04239 20.4346 9.95761 20.4346 11.6961 18.6961L13.2929 17.0993C13.6834 16.7088 14.3166 16.7088 14.7071 17.0993C15.0976 17.4899 15.0976 18.123 14.7071 18.5136L13.1103 20.1103C10.5908 22.6299 6.40922 22.6299 3.88967 20.1103C1.37011 17.5908 1.37011 13.4092 3.88967 10.8897L5.48644 9.29289C5.87697 8.90237 6.51013 8.90237 6.90066 9.29289Z" fill="black"/>
</svg>
