<svg width="24" height="24" viewBox="0 0 24 24" fill="none" xmlns="http://www.w3.org/2000/svg">
<path d="M21 5.6001H9.5C8.9 5.6001 8.5 5.2001 8.5 4.6001C8.5 4.0001 8.9 3.6001 9.5 3.6001H21C21.6 3.6001 22 4.0001 22 4.6001C22 5.2001 21.6 5.6001 21 5.6001Z" fill="black"/>
<path d="M21 13H9.5C8.9 13 8.5 12.6 8.5 12C8.5 11.4 8.9 11 9.5 11H21C21.6 11 22 11.4 22 12C22 12.6 21.6 13 21 13Z" fill="black"/>
<path d="M21 20.3999H9.5C8.9 20.3999 8.5 19.9999 8.5 19.3999C8.5 18.7999 8.9 18.3999 9.5 18.3999H21C21.6 18.3999 22 18.7999 22 19.3999C22 19.9999 21.6 20.3999 21 20.3999Z" fill="black"/>
<path d="M4.6 7.3C3.2 7.3 2 6.1 2 4.6C2 3.2 3.2 2 4.6 2C6.1 2 7.2 3.2 7.2 4.6C7.3 6.1 6.1 7.3 4.6 7.3ZM4.6 4C4.3 4 4 4.3 4 4.6C4 5 4.3 5.3 4.6 5.3C5 5.3 5.3 5 5.3 4.6C5.3 4.3 5 4 4.6 4Z" fill="black"/>
<path d="M4.6 14.5999C3.2 14.5999 2 13.4999 2 11.9999C2 10.4999 3.2 9.3999 4.6 9.3999C6.1 9.3999 7.2 10.5999 7.2 11.9999C7.3 13.4999 6.1 14.5999 4.6 14.5999ZM4.6 11.3999C4.3 11.3999 4 11.5999 4 11.9999C4 12.3999 4.3 12.5999 4.6 12.5999C5 12.5999 5.2 12.2999 5.2 11.9999C5.3 11.5999 5 11.3999 4.6 11.3999Z" fill="black"/>
<path d="M4.6 21.9998C3.2 21.9998 2 20.7998 2 19.3998C2 17.8998 3.2 16.7998 4.6 16.7998C6.1 16.7998 7.2 17.9998 7.2 19.3998C7.3 20.7998 6.1 21.9998 4.6 21.9998ZM4.6 18.6998C4.3 18.6998 4 18.9998 4 19.3998C4 19.6998 4.3 19.9998 4.6 19.9998C5 19.9998 5.2 19.6998 5.2 19.3998C5.3 18.9998 5 18.6998 4.6 18.6998Z" fill="black"/>
</svg>
