<svg width="24" height="24" viewBox="0 0 24 24" fill="none" xmlns="http://www.w3.org/2000/svg">
<path d="M15.4 23H8.6C6.6 23 5 21.4 5 19.4V4.6C5 2.6 6.6 1 8.6 1H15.5C17.5 1 19.1 2.6 19.1 4.6V19.5C19 21.4 17.4 23 15.4 23ZM8.6 3C7.7 3 7 3.7 7 4.6V19.5C7 20.3 7.7 21 8.6 21H15.5C16.4 21 17.1 20.3 17.1 19.4V4.6C17 3.7 16.3 3 15.4 3H8.6Z" fill="black"/>
<path d="M13.3 6.2998H10.7C10.1 6.2998 9.69995 5.8998 9.69995 5.2998C9.69995 4.6998 10.1 4.2998 10.7 4.2998H13.4C14 4.2998 14.4 4.6998 14.4 5.2998C14.4 5.8998 13.9 6.2998 13.3 6.2998Z" fill="black"/>
</svg>
