<svg width="24" height="24" viewBox="0 0 24 24" fill="none" xmlns="http://www.w3.org/2000/svg">
<path d="M20.3 17.4H3.7C2.2 17.4 1 16.2 1 14.7V6.7C1 5.2 2.2 4 3.7 4H20.3C21.8 4 23 5.2 23 6.7V14.7C23 16.2 21.8 17.4 20.3 17.4ZM3.7 6C3.3 6 3 6.3 3 6.7V14.7C3 15.1 3.3 15.4 3.7 15.4H20.3C20.7 15.4 21 15.1 21 14.7V6.7C21 6.3 20.7 6 20.3 6H3.7Z" fill="black"/>
<path d="M15.5999 20.7002H8.3999C7.7999 20.7002 7.3999 20.3002 7.3999 19.7002C7.3999 19.1002 7.7999 18.7002 8.3999 18.7002H15.6999C16.2999 18.7002 16.6999 19.1002 16.6999 19.7002C16.6999 20.3002 16.1999 20.7002 15.5999 20.7002Z" fill="black"/>
</svg>
