<svg width="24" height="24" viewBox="0 0 24 24" fill="none" xmlns="http://www.w3.org/2000/svg">
<path d="M18.4767 2H5.62028C3.10926 2 1 4.1 1 6.6V16.4C1 18.9 3.10926 21 5.62028 21H18.3763C20.9877 21 22.9966 18.9 22.9966 16.4V6.6C23.097 4.1 20.9877 2 18.4767 2ZM21.0882 16.4C21.0882 17.8 19.8829 19 18.4767 19H5.62028C4.21411 19 3.00882 17.8 3.00882 16.4V8.5H19.2802C19.8829 8.5 20.2847 8.1 20.2847 7.5C20.2847 6.9 19.7824 6.5 19.2802 6.5H3.00882C3.10926 5.1 4.21411 4 5.62028 4H18.3763C19.8829 4 21.0882 5.2 21.0882 6.6V16.4Z" fill="black"/>
<path d="M10.656 10.3375C10.365 9.95683 9.686 9.86165 9.298 10.2424L6.291 12.8122C6.097 13.0025 6 13.2881 6 13.5736C6 13.8591 6.097 14.1447 6.291 14.335L9.298 16.8096C9.492 17 9.686 17 9.977 17C10.268 17 10.559 16.9048 10.753 16.7145C11.141 16.3338 11.044 15.7627 10.656 15.382L8.522 13.5736L10.656 11.7652C11.044 11.2893 11.044 10.7183 10.656 10.3375Z" fill="black"/>
<path d="M14.605 10.2457C14.217 9.85974 13.538 9.95623 13.247 10.3422C12.859 10.7282 12.956 11.3071 13.344 11.6931L15.478 13.5264L13.344 15.3597C12.956 15.7456 12.859 16.3246 13.247 16.7105C13.441 16.9035 13.732 17 14.023 17C14.217 17 14.508 16.9035 14.702 16.807L17.709 14.2018C17.903 14.0088 18 13.7193 18 13.4299C18 13.1404 17.903 12.8509 17.709 12.658L14.605 10.2457Z" fill="black"/>
</svg>
