<svg width="24" height="24" viewBox="0 0 24 24" fill="none" xmlns="http://www.w3.org/2000/svg">
<path fill-rule="evenodd" clip-rule="evenodd" d="M10.1845 1.38605C11.3408 0.871316 12.6336 0.871316 13.7899 1.38605L13.8075 1.39407L19.99 4.29045C19.9979 4.29415 20.0058 4.29795 20.0136 4.30186C21.3986 4.99548 22.2194 6.51976 21.9488 8.15385C21.4347 11.3441 19.8782 17.6329 14.1083 22.256L14.0976 22.2646L14.0975 22.2645C12.8387 23.2452 11.1357 23.2452 9.87688 22.2645L9.86607 22.2561L9.86613 22.256C4.09478 17.6317 2.53888 11.341 2.02526 8.1515C2.02159 8.12874 2.01871 8.10586 2.01663 8.0829C1.88853 6.67157 2.51786 5.00836 4.08552 4.28974L10.1612 1.39675C10.1689 1.39309 10.1767 1.38952 10.1845 1.38605ZM11.0085 3.20845L4.93822 6.09888L4.92265 6.10613C4.31102 6.38458 3.94719 7.0992 4.00581 7.8706C4.49503 10.8818 5.93924 16.5433 11.1108 20.6905C11.6446 21.1032 12.3298 21.1032 12.8636 20.6905C18.0565 16.5262 19.4912 10.8351 19.9746 7.83352L19.9754 7.82836C20.1015 7.0708 19.7307 6.40246 19.1283 6.09534L12.9685 3.20961C12.3356 2.93052 11.6416 2.93013 11.0085 3.20845Z" fill="black"/>
<path fill-rule="evenodd" clip-rule="evenodd" d="M16.599 7.19924C17.0412 7.53 17.1316 8.15668 16.8009 8.59896L12.3137 14.599C12.1258 14.8502 11.8309 14.9987 11.5172 15.0001C11.2035 15.0014 10.9073 14.8555 10.7173 14.6059L8.20445 11.3059C7.86987 10.8665 7.95483 10.239 8.39423 9.90446C8.83363 9.56987 9.46107 9.65484 9.79566 10.0942L11.5057 12.34L15.1992 7.40116C15.53 6.95887 16.1567 6.86847 16.599 7.19924Z" fill="black"/>
</svg>
